# AST/ASF file generated using VICON BodyLanguage
# -----------------------------------------------
:version 1.10
:name VICON
:units
  mass 1.0
  length 0.45
  angle deg
:documentation
   .ast/.asf automatically generated from VICON data using
   VICON BodyBuilder and BodyLanguage model FoxedUp or BRILLIANT.MOD
:root
   order TX TY TZ RX RY RZ
   axis XYZ
   position 0 0 0  
   orientation 0 0 0 
:bonedata
  begin
     id 1 
     name lhipjoint
     direction 0.535335 -0.74333 0.401095 
     length 2.04549 
     axis 0 0 0  XYZ
  end
  begin
     id 2 
     name lfemur
     direction 0.34202 -0.939693 0  
     length 6.95643  
     axis 0 0 20  XYZ
    dof rx ry rz
    limits (-160.0 20.0)
           (-70.0 70.0)
           (-60.0 70.0)
  end
  begin
     id 3 
     name ltibia
     direction 0.34192 -0.939729 0   
     length 5.55969   
     axis 0 0 20   XYZ
    dof rx
    limits (-10.0 170.0)
  end
  begin
     id 4 
     name lfoot
     direction 0.216943 -0.596046 0.773088   
     length 2.27918   
     axis -90 7.62852e-016 20   XYZ
    dof rx rz
    limits (-45.0 90.0)
           (-70.0 20.0)
  end
  begin
     id 5 
     name ltoes
     direction 1.53519e-011 -4.21748e-011 1   
     length 1.05562   
     axis -90 7.62852e-016 20   XYZ
    dof rx
    limits (-90.0 20.0)
  end
  begin
     id 6 
     name rhipjoint
     direction -0.576368 -0.719173 0.38806   
     length 2.1142  
     axis 0 0 0  XYZ 
  end
  begin
     id 7 
     name rfemur
     direction -0.34202 -0.939693 0   
     length 7.07928   
     axis 0 0 -20   XYZ
    dof rx ry rz
    limits (-160.0 20.0)
           (-70.0 70.0)
           (-70.0 60.0)
  end
  begin
     id 8 
     name rtibia
     direction -0.34202 -0.939693 0   
     length 5.79974   
     axis 0 0 -20   XYZ
    dof rx
    limits (-10.0 170.0)
 end
 begin
     id 9 
     name rfoot
     direction -0.189288 -0.520065 0.832888   
     length 2.42173  
     axis -90 -7.62852e-016 -20   XYZ
    dof rx rz
    limits (-45.0 90.0)
           (-20.0 70.0)
  end
  begin
     id 10 
     name rtoes
     direction -1.53574e-011 -4.21658e-011 1   
     length 1.14469   
     axis -90 -7.62852e-016 -20   XYZ
    dof rx
    limits (-90.0 20.0)
  end
  begin
     id 11 
     name lowerback
     direction -0.00135702 0.993803 0.111144   
     length 1.91308   
     axis 0 0 0   XYZ
    dof rx ry rz
    limits (-20.0 45.0)
           (-30.0 30.0)
           (-30.0 30.0)
  end
  begin
     id 12 
     name upperback
     direction -0.0056745 0.999813 0.0184631   
     length 1.9212   
     axis 0 0 0   XYZ
    dof rx ry rz
    limits (-20.0 45.0)
           (-30.0 30.0)
           (-30.0 30.0)
  end
  begin
     id 13 
     name thorax
     direction -0.00733434 0.999426 -0.0330788   
     length 1.94196   
     axis 0 0 0   XYZ
    dof rx ry rz
    limits (-20.0 45.0)
           (-30.0 30.0)
           (-30.0 30.0)
  end
  begin
     id 14 
     name lowerneck
     direction 0.0563074 0.996944 -0.0541571   
     length 2.34257   
     axis 0 0 0   XYZ
    dof rx ry rz
    limits (-20.0 45.0)
           (-30.0 30.0)
           (-30.0 30.0)
  end
  begin
     id 15 
     name upperneck
     direction -0.0544519 0.976166 -0.210085   
     length 2.32506   
     axis 0 0 0   XYZ
    dof rx ry rz
    limits (-20.0 45.0)
           (-30.0 30.0)
           (-30.0 30.0)
  end
  begin
     id 16
     name head
     direction -0.0226035 0.997615 -0.0652205  
     length 2.3648  
     axis 0 0 0   XYZ
    dof rx ry rz
    limits (-20.0 45.0)
           (-30.0 30.0)
           (-30.0 30.0)
  end
  begin
     id 17 
     name lclavicle
     direction 0.92109 0.381297 -0.0787716  
     length 4.0487  
     axis 0 0 0   XYZ
    dof ry rz
    limits (-20.0 10.0)
           (0.0 20.0)
  end
  begin
     id 18 
     name lhumerus
     direction 1 -4.48986e-011 3.56724e-027   
     length 4.94991   
     axis 180 -30 -90   XYZ
    dof rx ry rz
    limits (-60.0 90.0)
           (-90.0 90.0)
           (-90.0 90.0)
  end
  begin
     id 19
     name lradius
     direction 1 -4.48981e-011 8.62147e-027   
     length 2.7606   
     axis 180 -30 -90   XYZ
    dof rx
    limits (-10.0 170.0)
  end
  begin
     id 20
     name lwrist
     direction 1 -4.48989e-011 1.59799e-026   
     length 1.3803   
     axis -1.17785e-014 90 90   XYZ
    dof ry
    limits (-180.0 0.0)
 end
  begin
     id 21 
     name lhand
     direction 1 -4.48896e-011 3.19599e-026   
     length 0.843936   
     axis -2.03931e-014 90 90   XYZ
    dof rx rz
    limits (-90.0 90.0)
           (-45.0 45.0)
  end
  begin
     id 22 
     name lfingers
     direction 1 -4.48887e-011 6.39197e-026   
     length 0.680403   
     axis -4.07862e-014 90 90   XYZ
    dof rx
    limits (0.0 90.0)
  end
  begin
     id 23
     name lthumb
     direction 0.707107 -6.348e-011 0.707107   
     length 0.976926   
     axis -90 45 2.85299e-015   XYZ
    dof rx rz
    limits (-45.0 45.0)
           (-45.0 45.0)
  end
  begin
     id 24 
     name rclavicle
     direction -0.951104 0.307692 -0.026953   
     length 4.21801  
     axis 0 0 0   XYZ 
    dof ry rz
    limits (-10.0 20.0)
           (-20.0 0.0)
  end
  begin
     id 25 
     name rhumerus
     direction -1 -4.4896e-011 -1.8171e-018  
     length 4.32982   
     axis 180 30 90   XYZ
    dof rx ry rz
    limits (-90.0 60.0)
           (-90.0 90.0)
           (-90.0 90.0)
  end
  begin
     id 26 
     name rradius
     direction -1 -4.48959e-011 8.25165e-027   
     length 3.20057   
     axis 180 30 90   XYZ
    dof rx
    limits (-10.0 170.0)
  end
  begin
     id 27 
     name rwrist
     direction -1 -4.48997e-011 1.59799e-026   
     length 1.60029   
     axis -1.17785e-014 -90 -90   XYZ
    dof ry
    limits (-180.0 0.0)
  end
  begin
     id 28
     name rhand
     direction -1 -4.49023e-011 3.19599e-026   
     length 0.960433   
     axis -2.03931e-014 -90 -90   XYZ
    dof rx rz
    limits (-90.0 90.0)
           (-45.0 45.0)
  end
  begin
     id 29
     name rfingers
     direction -1 -4.48802e-011 6.39197e-026   
     length 0.774326   
     axis -4.07862e-014 -90 -90   XYZ
    dof rx
    limits (0.0 90.0)
  end
  begin
     id 30
     name rthumb
     direction -0.707107 -6.34876e-011 0.707107   
     length 1.11178   
     axis -90 -45 -2.85299e-015   XYZ
    dof rx rz
    limits (-45.0 45.0)
           (-45.0 45.0)
  end
:hierarchy
  begin
    root lhipjoint rhipjoint lowerback
    lhipjoint lfemur
    lfemur ltibia
    ltibia lfoot
    lfoot ltoes
    rhipjoint rfemur
    rfemur rtibia
    rtibia rfoot
    rfoot rtoes
    lowerback upperback
    upperback thorax
    thorax lowerneck lclavicle rclavicle
    lowerneck upperneck
    upperneck head
    lclavicle lhumerus
    lhumerus lradius
    lradius lwrist
    lwrist lhand lthumb
    lhand lfingers
    rclavicle rhumerus
    rhumerus rradius
    rradius rwrist
    rwrist rhand rthumb
    rhand rfingers
end

#!OML:ASF C:\KaitlinTest1\Natural Motions\Nikki\Session 2\Nikki.ASF
:FULLY-SPECIFIED
:DEGREES
1133
root -14.8215 16.3784 4.81715 -351.886 85.2743 -360.994
lowerback -11.6817 -1.80288 -2.57869
upperback -2.98502 -1.91212 -1.34676
thorax 3.46224 -0.911841 -0.223254
lowerneck 10.3893 -6.62877 -13.8165
upperneck 11.0021 41.5538 7.99263
head 171.858 66.6887 -31.6472
rclavicle -4.32357e-015 7.15625e-015
rhumerus -37.2034 -12.6669 -85.2371
rradius 21.4934
rwrist 16.6497
rhand -34.1774 1.89243
rfingers 7.12502
rthumb -7.35079 -27.9599
lclavicle -4.32357e-015 7.15625e-015
lhumerus -40.8965 20.828 73.3803
lradius 18.4559
lwrist -43.3914
lhand -36.3166 4.5968
lfingers 7.12502
lthumb -9.4153 34.3665
rfemur -23.3013 -3.81127 17.3469
rtibia 39.622
rfoot -16.8809 3.09789
rtoes 2.8625e-014
lfemur -19.9931 22.3589 -23.6855
ltibia 26.6402
lfoot -8.69993 -18.0836
ltoes -1.59028e-015
1134
root -14.7993 16.3788 4.82073 -354.17 85.1629 -363.276
lowerback -11.6785 -1.76166 -2.40011
upperback -2.95298 -1.88252 -1.30102
thorax 3.48931 -0.897635 -0.27213
lowerneck 10.4276 -6.56864 -13.8402
upperneck 11.0136 41.584 8.03524
head 172.178 66.6526 -31.4121
rclavicle -1.30949e-014 -1.59028e-015
rhumerus -37.2183 -12.7354 -85.188
rradius 21.4969
rwrist 16.5765
rhand -34.0838 1.76897
rfingers 7.12502
rthumb -7.26042 -28.0865
lclavicle -1.30949e-014 -1.59028e-015
lhumerus -40.8368 20.155 73.8259
lradius 18.6751
lwrist -42.6143
lhand -36.3395 4.70428
lfingers 7.12502
lthumb -9.43738 34.473
rfemur -23.4604 -3.58358 17.5682
rtibia 39.1007
rfoot -16.8578 3.46552
rtoes -6.52014e-014
lfemur -19.8997 22.3966 -23.4276
ltibia 26.6719
lfoot -8.78968 -17.9354
ltoes -4.13472e-014
1135
root -14.7816 16.3808 4.82499 -354.573 85.0874 -363.74
lowerback -11.6586 -1.7487 -2.39178
upperback -2.93827 -1.8674 -1.30418
thorax 3.49316 -0.890546 -0.277583
lowerneck 10.3899 -6.5971 -13.77
upperneck 10.9714 41.4928 8.01045
head 172.09 66.7266 -31.4671
rclavicle 2.10712e-014 -2.38542e-015
rhumerus -37.1997 -12.8613 -85.1275
rradius 21.434
rwrist 16.6698
rhand -34.1199 1.81471
rfingers 7.12502
rthumb -7.29531 -28.0395
lclavicle 2.10712e-014 -2.38542e-015
lhumerus -40.8807 19.6879 74.0787
lradius 19.0133
lwrist -42.2153
lhand -36.3647 4.57277
lfingers 7.12502
lthumb -9.46166 34.3404
rfemur -23.7588 -3.42152 17.6323
rtibia 38.6203
rfoot -16.8116 3.92893
rtoes 3.49861e-014
lfemur -19.8744 22.3679 -23.3598
ltibia 26.6636
lfoot -8.8549 -17.8202
ltoes -1.59028e-014
1136
root -14.7602 16.38 4.8329 -354.686 84.8984 -363.918
lowerback -11.6416 -1.73345 -2.4437
upperback -2.99492 -1.84392 -1.25509
thorax 3.42759 -0.878073 -0.192346
lowerneck 10.459 -6.54333 -13.8347
upperneck 11.0015 41.5307 8.01121
head 172.125 66.7022 -31.4168
rclavicle 1.10077e-014 2.62396e-014
rhumerus -37.2481 -13.0918 -84.9093
rradius 21.3027
rwrist 16.8492
rhand -34.0371 1.69683
rfingers 7.12502
rthumb -7.2154 -28.1602
lclavicle 1.10077e-014 2.62396e-014
lhumerus -41.0206 19.0692 74.4861
lradius 19.3053
lwrist -41.3638
lhand -36.4542 4.53885
lfingers 7.12502
lthumb -9.54808 34.3025
rfemur -24.0633 -3.1588 17.6751
rtibia 38.1413
rfoot -16.6688 4.35901
rtoes 7.31528e-014
lfemur -19.8043 22.2288 -23.2704
ltibia 26.6448
lfoot -8.97549 -17.4935
ltoes 3.49861e-014
1137
root -14.7341 16.3769 4.84161 -354.041 84.7809 -363.402
lowerback -11.8975 -1.72633 -2.52586
upperback -2.93411 -1.81321 -1.26166
thorax 3.63326 -0.86482 -0.157114
lowerneck 10.3692 -6.57507 -13.801
upperneck 10.9555 41.4751 7.95744
head 171.915 66.715 -31.5573
rclavicle -2.13942e-014 -3.57812e-014
rhumerus -37.2292 -13.4191 -84.6679
rradius 21.1202
rwrist 17.5196
rhand -34.058 1.87631
rfingers 7.12502
rthumb -7.23551 -27.98
lclavicle -2.13942e-014 -3.57812e-014
lhumerus -40.915 18.3895 74.9673
lradius 19.6207
lwrist -40.4218
lhand -36.3602 4.67347
lfingers 7.12502
lthumb -9.45738 34.4413
rfemur -24.4364 -2.82768 17.6909
rtibia 37.705
rfoot -16.6651 4.61354
rtoes -4.77083e-014
lfemur -19.7446 22.1214 -23.2394
ltibia 26.5644
lfoot -9.08089 -17.2824
ltoes -6.67916e-014
1138
root -14.7099 16.379 4.84791 -354.573 84.5742 -364.005
lowerback -11.9867 -1.67685 -2.42914
upperback -2.91173 -1.75617 -1.26451
thorax 3.70162 -0.83671 -0.208774
lowerneck 10.3344 -6.58121 -13.7857
upperneck 10.8984 41.349 7.89242
head 171.74 66.8843 -31.6647
rclavicle 4.27387e-015 -7.95139e-016
rhumerus -37.2497 -13.9027 -84.3236
rradius 20.6683
rwrist 18.7419
rhand -34.4469 2.48766
rfingers 7.12502
rthumb -7.61092 -27.3554
lclavicle 4.27387e-015 -7.95139e-016
lhumerus -41.0173 18.1022 75.1105
lradius 19.9175
lwrist -40.2042
lhand -36.5235 4.46519
lfingers 7.12502
lthumb -9.61492 34.2258
rfemur -24.712 -2.63432 17.7587
rtibia 37.2438
rfoot -16.6302 5.10997
rtoes 5.725e-014
lfemur -19.6146 21.9824 -23.1089
ltibia 26.48
lfoot -9.15846 -16.9479
ltoes 2.38542e-014
1139
root -14.691 16.3815 4.85392 -355.191 84.5034 -364.73
lowerback -11.9437 -1.66697 -2.34682
upperback -3.0086 -1.75486 -1.25121
thorax 3.57484 -0.833162 -0.237917
lowerneck 10.4785 -6.48634 -13.8563
upperneck 10.9775 41.4732 7.97997
head 172.148 66.7714 -31.3609
rclavicle -1.26228e-014 -7.95139e-016
rhumerus -37.3821 -14.0245 -84.1692
rradius 20.4879
rwrist 18.7981
rhand -34.5437 2.56792
rfingers 7.12502
rthumb -7.70435 -27.2717
lclavicle -1.26228e-014 -7.95139e-016
lhumerus -41.2024 17.6028 75.3717
lradius 20.2213
lwrist -39.7269
lhand -36.6012 4.59008
lfingers 7.12502
lthumb -9.68988 34.3472
rfemur -25.0328 -2.5817 17.8822
rtibia 36.8084
rfoot -16.6865 5.59493
rtoes -7.95139e-014
lfemur -19.5522 21.7662 -22.9802
ltibia 26.3508
lfoot -9.17893 -16.6621
ltoes -9.85972e-014
1140
root -14.6731 16.3883 4.86196 -355.255 84.4009 -364.918
lowerback -11.994 -1.6491 -2.31595
upperback -3.00286 -1.73163 -1.27745
thorax 3.60636 -0.821497 -0.280598
lowerneck 10.3885 -6.52379 -13.7844
upperneck 10.9508 41.4539 7.95985
head 171.952 66.7943 -31.5146
rclavicle -1.83627e-014 5.56597e-015
rhumerus -37.3579 -14.5161 -83.9873
rradius 20.3026
rwrist 19.2484
rhand -34.554 2.62761
rfingers 7.12502
rthumb -7.71428 -27.2117
lclavicle -1.83627e-014 5.56597e-015
lhumerus -41.1809 17.1363 75.6336
lradius 20.4454
lwrist -38.8941
lhand -36.5018 4.58627
lfingers 7.12502
lthumb -9.59394 34.3478
rfemur -25.3819 -2.45743 17.9349
rtibia 36.3143
rfoot -16.7935 6.1266
rtoes -9.93923e-014
lfemur -19.5775 21.5854 -22.9238
ltibia 26.2502
lfoot -9.09703 -16.4199
ltoes -5.08889e-014
1141
root -14.6528 16.3893 4.86992 -356.219 84.2328 -365.989
lowerback -12.0076 -1.61232 -2.20635
upperback -3.05255 -1.69897 -1.21631
thorax 3.56019 -0.803971 -0.273073
lowerneck 10.4124 -6.472 -13.8781
upperneck 10.9575 41.4763 7.93451
head 171.969 66.7893 -31.4814
rclavicle -2.46741e-014 6.36111e-015
rhumerus -37.4503 -14.4761 -83.8799
rradius 20.2554
rwrist 19.2395
rhand -34.5508 2.4746
rfingers 7.12502
rthumb -7.71126 -27.3648
lclavicle -2.46741e-014 6.36111e-015
lhumerus -41.4013 17.0882 75.7138
lradius 20.8159
lwrist -38.6334
lhand -36.4711 4.50284
lfingers 7.12502
lthumb -9.56432 34.2658
rfemur -25.6968 -2.27888 18.0911
rtibia 35.8502
rfoot -16.7541 6.63171
rtoes 3.65764e-014
lfemur -19.4703 21.3388 -22.7281
ltibia 26.138
lfoot -9.18534 -15.9991
ltoes -1.59028e-014
1142
root -14.6314 16.397 4.87785 -356.835 84.1274 -366.693
lowerback -11.9822 -1.58751 -2.13744
upperback -3.09646 -1.67716 -1.18122
thorax 3.4993 -0.792032 -0.270538
lowerneck 10.422 -6.42355 -13.9382
upperneck 11.0115 41.6322 7.98044
head 172.138 66.5846 -31.3637
rclavicle 2.62644e-014 1.43125e-014
rhumerus -37.5626 -14.5414 -83.7335
rradius 20.1798
rwrist 19.3592
rhand -34.5405 2.36311
rfingers 7.12502
rthumb -7.70129 -27.4767
lclavicle 2.62644e-014 1.43125e-014
lhumerus -41.53 16.9576 75.7834
lradius 21.0161
lwrist -38.5773
lhand -36.5603 4.60275
lfingers 7.12502
lthumb -9.65043 34.3617
rfemur -25.9445 -2.23376 18.2246
rtibia 35.3665
rfoot -16.6972 7.14503
rtoes 7.15625e-015
lfemur -19.414 21.2162 -22.598
ltibia 26.04
lfoot -9.19933 -15.7499
ltoes -1.59028e-014
1143
root -14.6094 16.4045 4.88787 -357.206 84.0062 -367.147
lowerback -12.0674 -1.54759 -2.06759
upperback -3.06641 -1.62883 -1.20638
thorax 3.57408 -0.768341 -0.33153
lowerneck 10.3822 -6.41259 -13.8973
upperneck 11.0039 41.655 8.01455
head 172.315 66.5361 -31.25
rclavicle 4.57205e-015 -3.18055e-015
rhumerus -37.5252 -14.794 -83.6642
rradius 20.022
rwrist 19.4385
rhand -34.5235 2.32017
rfingers 7.12502
rthumb -7.68487 -27.5202
lclavicle 4.57205e-015 -3.18055e-015
lhumerus -41.5235 16.7365 75.8559
lradius 21.1801
lwrist -38.1803
lhand -36.5107 4.36595
lfingers 7.12502
lthumb -9.60261 34.1271
rfemur -26.2137 -2.16806 18.3518
rtibia 34.926
rfoot -16.4543 7.60097
rtoes 8.74653e-014
lfemur -19.3365 21.1532 -22.4873
ltibia 25.8967
lfoot -9.18241 -15.5444
ltoes 1.27222e-014
1144
root -14.5908 16.4102 4.89923 -357.947 83.9326 -368.026
lowerback -12.0544 -1.55206 -1.99633
upperback -3.13957 -1.64728 -1.12793
thorax 3.49111 -0.775842 -0.291054
lowerneck 10.3891 -6.38546 -13.9929
upperneck 11.0003 41.6482 7.94993
head 172.109 66.5761 -31.3708
rclavicle -3.34455e-014 -1.82882e-014
rhumerus -37.5736 -15.1338 -83.3356
rradius 19.7254
rwrist 19.9227
rhand -34.5453 2.38324
rfingers 7.12502
rthumb -7.70595 -27.4563
lclavicle -3.34455e-014 -1.82882e-014
lhumerus -41.6765 16.7496 75.9413
lradius 21.3866
lwrist -37.9185
lhand -36.5772 4.33898
lfingers 7.12502
lthumb -9.66676 34.0972
rfemur -26.5138 -2.18275 18.5434
rtibia 34.466
rfoot -16.2636 8.0829
rtoes 4.45278e-014
lfemur -19.3364 21.0842 -22.3543
ltibia 25.7588
lfoot -9.17728 -15.402
ltoes -3.33958e-014
1145
root -14.5697 16.4139 4.90992 -358.008 83.7969 -368.151
lowerback -12.0789 -1.52252 -1.97796
upperback -3.1102 -1.61155 -1.10379
thorax 3.535 -0.758989 -0.272056
lowerneck 10.3322 -6.3394 -14.0559
upperneck 10.9633 41.6366 7.92585
head 172.273 66.5779 -31.2471
rclavicle 1.35174e-014 -3.97569e-015
rhumerus -37.6351 -15.4381 -83.108
rradius 19.6716
rwrist 20.2651
rhand -34.5597 2.37014
rfingers 7.12502
rthumb -7.71983 -27.4689
lclavicle 1.35174e-014 -3.97569e-015
lhumerus -41.6543 16.78 76.0184
lradius 21.5157
lwrist -37.7296
lhand -36.656 4.34478
lfingers 7.12502
lthumb -9.74273 34.0994
rfemur -26.723 -2.09334 18.6313
rtibia 34.0343
rfoot -15.9814 8.46676
rtoes -4.6118e-014
lfemur -19.1894 20.9015 -22.2441
ltibia 25.6007
lfoot -9.1699 -15.0851
ltoes -1.27222e-014
